<svg xmlns="http://www.w3.org/2000/svg" version="1.1" xmlns:xlink="http://www.w3.org/1999/xlink" xmlns:svgjs="http://svgjs.dev/svgjs" width="1000" height="1000" viewBox="0 0 1000 1000"><rect width="1000" height="1000" fill="#ffffff"></rect><g transform="matrix(0.7,0,0,0.7,149.84897959183667,150.19913061224486)"><svg viewBox="0 0 343 343" data-background-color="#ffffff" preserveAspectRatio="xMidYMid meet" height="999" width="1000" xmlns="http://www.w3.org/2000/svg" xmlns:xlink="http://www.w3.org/1999/xlink"><g id="tight-bounds" transform="matrix(1,0,0,1,0.0740000000000407,0.07400000000001228)"><svg viewBox="0 0 342.85155851775386 342.85155851775386" height="342.85155851775386" width="342.85155851775386"><g><svg></svg></g><g><svg viewBox="0 0 342.85155851775386 342.85155851775386" height="342.85155851775386" width="342.85155851775386"><g><path d="M0 171.426c0-94.676 76.75-171.426 171.426-171.426 94.676 0 171.426 76.75 171.426 171.426 0 94.676-76.75 171.426-171.426 171.426-94.676 0-171.426-76.75-171.426-171.426zM171.426 340.001c93.102 0 168.576-75.474 168.575-168.575 0-93.102-75.474-168.576-168.575-168.576-93.102 0-168.576 75.474-168.576 168.576 0 93.102 75.474 168.576 168.576 168.575z" data-fill-palette-color="tertiary" fill="#6f605b" stroke="transparent"></path><ellipse rx="164.56874808852186" ry="164.56874808852186" cx="171.42577925887693" cy="171.42577925887693" fill="#6f605b" stroke="transparent" stroke-width="0" fill-opacity="1" data-fill-palette-color="tertiary"></ellipse></g><g transform="matrix(1,0,0,1,64.84655864529837,130.05366884261605)"><svg viewBox="0 0 213.1584412271571 82.74422083252173" height="82.74422083252173" width="213.1584412271571"><g><svg viewBox="0 0 213.1584412271571 82.74422083252173" height="82.74422083252173" width="213.1584412271571"><g><svg viewBox="0 0 213.1584412271571 82.74422083252173" height="82.74422083252173" width="213.1584412271571"><g transform="matrix(1,0,0,1,0,51.13924800800414)"><svg viewBox="0 0 213.1584412271571 31.604972824517596" height="31.604972824517596" width="213.1584412271571"><g id="textblocktransform"><svg viewBox="0 0 213.1584412271571 31.604972824517596" height="31.604972824517596" width="213.1584412271571" id="textblock"><g><svg viewBox="0 0 213.1584412271571 31.604972824517596" height="31.604972824517596" width="213.1584412271571"><g transform="matrix(1,0,0,1,0,0)"><svg width="213.1584412271571" viewBox="3.5 -37.75 258.6300048828125 38.349998474121094" height="31.604972824517596" data-palette-color="#ffffff"><path d="M12.95 0L3.5 0 3.5-32.6 12.5-32.6Q16.05-32.6 18.95-31.65 21.85-30.7 23.9-28.73 25.95-26.75 27.08-23.7 28.2-20.65 28.2-16.45L28.2-16.45Q28.2-12.25 27.1-9.15 26-6.05 23.98-4.03 21.95-2 19.15-1 16.35 0 12.95 0L12.95 0ZM10.9-26.65L10.9-5.95 12.1-5.95Q14-5.95 15.58-6.5 17.15-7.05 18.28-8.28 19.4-9.5 20.03-11.5 20.65-13.5 20.65-16.45L20.65-16.45Q20.65-19.35 20.03-21.33 19.4-23.3 18.28-24.48 17.15-25.65 15.58-26.15 14-26.65 12.1-26.65L12.1-26.65 10.9-26.65ZM51.25 0L43.9 0 43.9-19.05 33.95-19.05 33.95-24.8 51.25-24.8 51.25 0ZM47.25-28.7L47.25-28.7Q45.1-28.7 43.72-29.9 42.35-31.1 42.35-33.15L42.35-33.15Q42.35-35.2 43.72-36.48 45.1-37.75 47.25-37.75L47.25-37.75Q49.4-37.75 50.77-36.48 52.15-35.2 52.15-33.15L52.15-33.15Q52.15-31.1 50.77-29.9 49.4-28.7 47.25-28.7ZM74.8 0.6L74.8 0.6Q71.45 0.6 68.25-0.5 65.05-1.6 62.65-3.2L62.65-3.2 65.8-7.8Q68.09-6.35 70.59-5.6 73.09-4.85 75.8-4.85L75.8-4.85Q77.84-4.85 78.8-5.45 79.75-6.05 79.75-6.95L79.75-6.95Q79.75-7.45 79.47-7.85 79.2-8.25 78.52-8.58 77.84-8.9 76.65-9.2 75.45-9.5 73.65-9.9L73.65-9.9Q68.59-11 66.4-12.88 64.2-14.75 64.2-17.65L64.2-17.65Q64.2-19.35 65-20.8 65.8-22.25 67.27-23.25 68.75-24.25 70.84-24.83 72.95-25.4 75.59-25.4L75.59-25.4Q78.95-25.4 81.67-24.33 84.4-23.25 86.34-22L86.34-22 83.05-17.6Q81.15-18.75 79.09-19.35 77.05-19.95 74.95-19.95L74.95-19.95Q73.2-19.95 72.34-19.4 71.5-18.85 71.5-18L71.5-18Q71.5-16.95 72.8-16.5 74.09-16.05 77.25-15.35L77.25-15.35Q80.09-14.7 82-13.95 83.9-13.2 85-12.25 86.09-11.3 86.55-10.1 87-8.9 87-7.4L87-7.4Q87-5.7 86.2-4.25 85.4-2.8 83.87-1.73 82.34-0.65 80.07-0.03 77.8 0.6 74.8 0.6ZM107.14 0.6L107.14 0.6Q104.19 0.6 101.69-0.28 99.19-1.15 97.32-2.8 95.44-4.45 94.39-6.88 93.34-9.3 93.34-12.4L93.34-12.4Q93.34-15.5 94.52-17.93 95.69-20.35 97.67-22 99.64-23.65 102.24-24.53 104.84-25.4 107.69-25.4L107.69-25.4Q110.64-25.4 113.02-24.45 115.39-23.5 116.99-22.05L116.99-22.05 113.59-17.5Q110.84-19.45 108.09-19.45L108.09-19.45Q104.89-19.45 102.89-17.55 100.89-15.65 100.89-12.4L100.89-12.4Q100.89-9.15 102.82-7.25 104.74-5.35 107.84-5.35L107.84-5.35Q109.79-5.35 111.42-6.05 113.04-6.75 114.39-7.7L114.39-7.7 117.34-3.05Q115.09-1.15 112.39-0.28 109.69 0.6 107.14 0.6ZM134.99 0.6L134.99 0.6Q132.54 0.6 130.27-0.28 127.99-1.15 126.22-2.8 124.44-4.45 123.39-6.88 122.34-9.3 122.34-12.4L122.34-12.4Q122.34-15.5 123.39-17.93 124.44-20.35 126.22-22 127.99-23.65 130.27-24.53 132.54-25.4 134.99-25.4L134.99-25.4Q137.44-25.4 139.72-24.53 141.99-23.65 143.77-22 145.54-20.35 146.59-17.93 147.64-15.5 147.64-12.4L147.64-12.4Q147.64-9.3 146.59-6.88 145.54-4.45 143.77-2.8 141.99-1.15 139.72-0.28 137.44 0.6 134.99 0.6ZM134.99-5.35L134.99-5.35Q137.54-5.35 138.81-7.25 140.09-9.15 140.09-12.4L140.09-12.4Q140.09-15.65 138.81-17.55 137.54-19.45 134.99-19.45L134.99-19.45Q132.44-19.45 131.17-17.55 129.89-15.65 129.89-12.4L129.89-12.4Q129.89-9.15 131.17-7.25 132.44-5.35 134.99-5.35ZM169.34 0L160.89 0 151.54-24.8 158.94-24.8 162.84-13.1Q163.44-11.2 163.99-9.3 164.54-7.4 165.09-5.45L165.09-5.45 165.29-5.45Q165.84-7.4 166.36-9.3 166.89-11.2 167.49-13.1L167.49-13.1 171.39-24.8 178.44-24.8 169.34 0ZM196.49 0.6L196.49 0.6Q193.59 0.6 191.06-0.28 188.54-1.15 186.69-2.8 184.84-4.45 183.79-6.88 182.74-9.3 182.74-12.4L182.74-12.4Q182.74-15.45 183.81-17.88 184.89-20.3 186.69-21.98 188.49-23.65 190.81-24.53 193.14-25.4 195.64-25.4L195.64-25.4Q198.49-25.4 200.69-24.5 202.89-23.6 204.36-22 205.84-20.4 206.59-18.23 207.34-16.05 207.34-13.5L207.34-13.5Q207.34-12.5 207.21-11.58 207.09-10.65 206.99-10.2L206.99-10.2 190.09-10.2Q190.64-7.5 192.54-6.25 194.44-5 197.49-5L197.49-5Q199.19-5 200.71-5.45 202.24-5.9 203.89-6.75L203.89-6.75 206.34-2.3Q204.19-0.95 201.59-0.18 198.99 0.6 196.49 0.6ZM195.89-19.8L195.89-19.8Q193.69-19.8 192.21-18.65 190.74-17.5 190.19-15.15L190.19-15.15 200.79-15.15Q200.24-19.8 195.89-19.8ZM223.13 0L215.78 0 215.78-24.8 221.78-24.8 222.38-19.4 222.53-19.4Q224.38-22.45 226.98-23.93 229.58-25.4 232.58-25.4L232.58-25.4Q234.23-25.4 235.26-25.15 236.28-24.9 237.38-24.4L237.38-24.4 235.88-18.25Q234.73-18.6 233.81-18.78 232.88-18.95 231.48-18.95L231.48-18.95Q229.18-18.95 226.96-17.6 224.73-16.25 223.13-12.9L223.13-12.9 223.13 0ZM261.23 0L253.88 0 253.88-19.05 243.93-19.05 243.93-24.8 261.23-24.8 261.23 0ZM257.23-28.7L257.23-28.7Q255.08-28.7 253.71-29.9 252.33-31.1 252.33-33.15L252.33-33.15Q252.33-35.2 253.71-36.48 255.08-37.75 257.23-37.75L257.23-37.75Q259.38-37.75 260.75-36.48 262.13-35.2 262.13-33.15L262.13-33.15Q262.13-31.1 260.75-29.9 259.38-28.7 257.23-28.7Z" opacity="1" transform="matrix(1,0,0,1,0,0)" fill="#ffffff" class="wordmark-text-0" data-fill-palette-color="quaternary" id="text-0"></path></svg></g></svg></g></svg></g></svg></g><g transform="matrix(1,0,0,1,84.73941486329377,0)"><svg viewBox="0 0 43.67961150056955 43.67807244348332" height="43.67807244348332" width="43.67961150056955"><g><svg xmlns="http://www.w3.org/2000/svg" xmlns:xlink="http://www.w3.org/1999/xlink" version="1.1" x="0" y="0" viewBox="11.024888038635254 11.026813507080078 77.95008850097656 77.94734191894531" enable-background="new 0 0 100 100" xml:space="preserve" height="43.67807244348332" width="43.67961150056955" class="icon-icon-0" data-fill-palette-color="quaternary" id="icon-0"><path d="M87.463 49.172c-1.252-7.528-4.018-14.373-8.363-20.152l1.26-1.366c0.982-0.984 1.301-4.476-1.119-6.894-2.418-2.421-6.659-2.85-7.642-1.867l-1.462 1.383c-5.594-3.984-12.14-6.539-19.298-7.73-22.348-3.718-26.449-0.447-8.012 8.012 5.604 2.571 11.07 5.999 16.183 10.243L11.208 76.012c-0.982 0.982 2.192 5.749 4.611 8.169 2.419 2.419 7.185 5.592 8.168 4.61l44.668-48.445c4.5 5.3 8.115 10.995 10.797 16.838C87.874 75.537 91.178 71.495 87.463 49.172z" fill="#ffffff" data-fill-palette-color="quaternary"></path></svg></g></svg></g><g></g></svg></g></svg></g></svg></g></svg></g><defs></defs></svg><rect width="342.85155851775386" height="342.85155851775386" fill="none" stroke="none" visibility="hidden"></rect></g></svg></g></svg>